<svg width="100" height="100" viewBox="0 0 512 506" xmlns="http://www.w3.org/2000/svg">
  <path fill="#9e0b23" d="M511.999 3.835A9.949 9.949 0 00511.5.882l-.002-.006a6.987 6.987 0 00-.068-.198l-.026-.074-.044-.118-.057-.15-.01-.025a9.946 9.946 0 00-2.208-3.367l-.012-.012-.036-.035a9.926 9.926 0 00-3.559-2.27l-.045-.017-.142-.05-.131-.046-.067-.022a9.928 9.928 0 00-2.442-.47l-.025-.002a9.913 9.913 0 00-3.171.31l-129.92 31.884a10.006 10.006 0 00-5.25 3.252L162.696 267.68l-19.667-19.666c-3.905-3.903-10.235-3.904-14.141-.002L99.54 277.345a10.005 10.005 0 000 14.146l19.537 19.527-68.881 68.833c-11.966-9.831-29.732-9.162-40.91 2.009l-.348.348C3.174 387.969 0 395.63 0 403.781c0 8.149 3.174 15.811 8.938 21.572l71.505 71.467c5.946 5.942 13.755 8.913 21.564 8.913 7.805-.001 15.61-2.97 21.55-8.905l.357-.356c5.765-5.762 8.938-13.423 8.938-21.573 0-7.139-2.435-13.903-6.913-19.343l68.882-68.833 19.541 19.53a9.953 9.953 0 007.069 2.927 9.965 9.965 0 007.069-2.927l29.317-29.302a9.99 9.99 0 002.931-7.071 10.016 10.016 0 00-2.929-7.073l-19.669-19.669 238.362-201.489a9.99 9.99 0 003.255-5.251L511.663 6.576c.23-.858.343-1.744.337-2.633V3.88l-.001-.044zM109.784 482.316l-.357.356c-4.093 4.092-10.754 4.092-14.845 0l-71.505-71.466A10.416 10.416 0 0120 403.781c0-2.807 1.093-5.443 3.079-7.429l.348-.348a10.455 10.455 0 017.423-3.068c2.688 0 5.376 1.023 7.422 3.068l71.505 71.467a10.443 10.443 0 013.077 7.427c0 2.805-1.093 5.442-3.07 7.418zm2.113-41.003l-47.452-47.426 29.7-29.679 47.446 47.432-29.694 29.673zm39.078-39.05l-47.446-47.432 29.694-29.673 47.452 47.426-29.7 29.679zm70.457-17.223L120.755 284.419l15.2-15.192 100.649 100.648-15.172 15.165zM461.12 128.471L223.96 328.943l-16.465-16.465L425.369 94.729c3.906-3.904 3.908-10.236.004-14.143s-10.236-3.909-14.143-.004L193.352 298.336l-16.464-16.465L377.455 44.865 488.348 17.65 461.12 128.471z" />
</svg>
