<svg height="50" width="50" viewBox="0 0 512 512" xmlns="http://www.w3.org/2000/svg">
  <path d="M472.46 32.1l-91.585 26.655a6.01 6.01 0 00-2.566 1.518L134.127 304.455 115.3 285.623a22.983 22.983 0 00-32.5 0l-.035.035a22.983 22.983 0 00.033 32.471L110 345.339l-28.836 28.836-25.337 25.337L43.6 411.741a40.108 40.108 0 000 56.658 40.064 40.064 0 0056.658 0l37.565-37.565L166.661 402l27.21 27.211a22.985 22.985 0 0032.471.034l.035-.036a22.983 22.983 0 000-32.5l-18.832-18.832 244.182-244.186a6 6 0 001.518-2.566L479.9 39.54a6 6 0 00-7.44-7.44zM108.245 443.445l-39.69-39.691L85.406 386.9l39.694 39.694zM71.93 468.136a27.881 27.881 0 01-19.844-8.219 28.1 28.1 0 010-39.688l7.987-7.986 39.69 39.69-7.986 7.987a27.882 27.882 0 01-19.847 8.216zm86.245-74.621l-24.593 24.593-39.69-39.69 24.593-24.593 19.845 19.845zm62.934 19.442a10.909 10.909 0 01-3.193 7.743l-.026.026a10.983 10.983 0 01-15.533 0l-55.542-55.541-24.087-24.085-31.454-31.456a10.985 10.985 0 010-15.534l.027-.027a10.985 10.985 0 0115.509.025L217.892 405.19a10.911 10.911 0 013.217 7.767zm221.044-286.663L199.06 369.387l-23.981-23.981L405 115.484a6 6 0 10-8.484-8.484L166.594 336.921l-23.981-23.981L385.706 69.847l79.617-23.169z"/>
</svg>
