<svg width="323" height="31" viewBox="0 0 323 31" fill="none" xmlns="http://www.w3.org/2000/svg">
<path d="M16.952 6.768C14.488 6.768 12.6 7.52 11.288 9.024C9.976 10.528 9.32 12.656 9.32 15.408C9.32 18.192 10.04 20.336 11.48 21.84C12.952 23.344 14.92 24.096 17.384 24.096C18.696 24.096 19.8 23.92 20.696 23.568C21.624 23.216 22.504 22.816 23.336 22.368C23.88 22.816 24.296 23.36 24.584 24C24.904 24.608 25.064 25.328 25.064 26.16C25.064 27.472 24.328 28.592 22.856 29.52C21.416 30.416 19.208 30.864 16.232 30.864C14.088 30.864 12.072 30.56 10.184 29.952C8.296 29.344 6.648 28.416 5.24 27.168C3.832 25.888 2.712 24.288 1.88 22.368C1.08 20.416 0.68 18.096 0.68 15.408C0.68 12.912 1.064 10.72 1.832 8.832C2.632 6.912 3.704 5.296 5.048 3.984C6.424 2.672 8.024 1.68 9.848 1.008C11.672 0.335999 13.624 0 15.704 0C18.648 0 20.92 0.48 22.52 1.44C24.152 2.4 24.968 3.632 24.968 5.136C24.968 5.968 24.76 6.688 24.344 7.296C23.928 7.904 23.448 8.384 22.904 8.736C22.072 8.192 21.176 7.728 20.216 7.344C19.288 6.96 18.2 6.768 16.952 6.768ZM37.8939 20.592V29.808C37.5419 29.904 36.9819 30 36.2139 30.096C35.4779 30.192 34.7419 30.24 34.0059 30.24C33.2699 30.24 32.6139 30.176 32.0379 30.048C31.4939 29.952 31.0299 29.76 30.6459 29.472C30.2939 29.184 30.0219 28.784 29.8299 28.272C29.6379 27.76 29.5419 27.088 29.5419 26.256V3.648C29.5419 2.976 29.7179 2.464 30.0699 2.112C30.4539 1.728 30.9659 1.424 31.6059 1.2C32.6939 0.815998 33.9579 0.543998 35.3979 0.383998C36.8379 0.191998 38.3739 0.0959988 40.0059 0.0959988C44.4219 0.0959988 47.7499 1.024 49.9899 2.88C52.2299 4.736 53.3499 7.248 53.3499 10.416C53.3499 12.4 52.8379 14.096 51.8139 15.504C50.7899 16.912 49.5739 18 48.1659 18.768C49.3179 20.336 50.4539 21.808 51.5739 23.184C52.6939 24.56 53.5739 25.808 54.2139 26.928C53.8939 28.048 53.3019 28.912 52.4379 29.52C51.6059 30.096 50.6619 30.384 49.6059 30.384C48.9019 30.384 48.2939 30.304 47.7819 30.144C47.2699 29.984 46.8219 29.76 46.4379 29.472C46.0539 29.184 45.7019 28.832 45.3819 28.416C45.0619 28 44.7579 27.552 44.4699 27.072L40.4379 20.592H37.8939ZM40.9179 14.208C42.1339 14.208 43.0939 13.904 43.7979 13.296C44.5019 12.656 44.8539 11.728 44.8539 10.512C44.8539 9.296 44.4539 8.384 43.6539 7.776C42.8859 7.136 41.6539 6.816 39.9579 6.816C39.4779 6.816 39.0939 6.832 38.8059 6.864C38.5179 6.896 38.1979 6.944 37.8459 7.008V14.208H40.9179ZM72.7903 29.808C72.4383 29.904 71.8943 30 71.1583 30.096C70.4223 30.192 69.7023 30.24 68.9983 30.24C67.5263 30.24 66.4223 30 65.6863 29.52C64.9503 29.008 64.5823 27.952 64.5823 26.352V19.872C63.7823 18.688 62.9183 17.376 61.9903 15.936C61.0623 14.496 60.1503 13.024 59.2543 11.52C58.3583 10.016 57.5263 8.544 56.7583 7.104C55.9903 5.632 55.3663 4.288 54.8863 3.072C55.3023 2.496 55.8623 1.968 56.5663 1.488C57.3023 1.008 58.1983 0.767999 59.2543 0.767999C60.5023 0.767999 61.5103 1.024 62.2783 1.536C63.0783 2.048 63.8303 3.008 64.5343 4.416L68.5182 12.432H68.8063C69.2543 11.44 69.6383 10.544 69.9583 9.744C70.3103 8.912 70.6463 8.096 70.9663 7.296C71.2863 6.464 71.6223 5.616 71.9743 4.752C72.3263 3.856 72.7263 2.832 73.1743 1.68C73.7503 1.392 74.3903 1.168 75.0943 1.008C75.7983 0.847999 76.4703 0.767999 77.1103 0.767999C78.2303 0.767999 79.1743 1.072 79.9423 1.68C80.7423 2.256 81.1423 3.136 81.1423 4.32C81.1423 4.704 81.0623 5.168 80.9023 5.712C80.7423 6.256 80.3743 7.088 79.7983 8.208C79.2223 9.296 78.3743 10.784 77.2543 12.672C76.1663 14.56 74.6783 17.024 72.7903 20.064V29.808ZM95.9848 14.4C97.3288 14.4 98.3528 14.096 99.0568 13.488C99.7928 12.848 100.161 11.888 100.161 10.608C100.161 9.392 99.7768 8.464 99.0088 7.824C98.2728 7.152 97.1848 6.816 95.7448 6.816C95.2328 6.816 94.8008 6.832 94.4488 6.864C94.1288 6.864 93.7928 6.896 93.4408 6.96V14.4H95.9848ZM93.4888 29.808C93.1368 29.904 92.5768 30 91.8088 30.096C91.0728 30.192 90.3368 30.24 89.6008 30.24C88.8648 30.24 88.2088 30.176 87.6328 30.048C87.0888 29.952 86.6248 29.76 86.2408 29.472C85.8568 29.184 85.5688 28.784 85.3768 28.272C85.1848 27.76 85.0888 27.088 85.0888 26.256V3.648C85.0888 2.976 85.2648 2.464 85.6168 2.112C86.0008 1.728 86.5128 1.424 87.1528 1.2C88.2408 0.815998 89.4728 0.543998 90.8488 0.383998C92.2568 0.191998 93.6648 0.0959988 95.0728 0.0959988C99.4888 0.0959988 102.865 1.04 105.201 2.928C107.537 4.816 108.705 7.376 108.705 10.608C108.705 12.176 108.449 13.6 107.937 14.88C107.457 16.128 106.721 17.216 105.729 18.144C104.769 19.04 103.537 19.744 102.033 20.256C100.561 20.736 98.8488 20.976 96.8968 20.976H93.4888V29.808ZM111.823 7.632C111.599 7.28 111.391 6.8 111.199 6.192C111.007 5.584 110.911 4.944 110.911 4.272C110.911 3.024 111.183 2.128 111.727 1.584C112.303 1.04 113.039 0.767999 113.935 0.767999H134.863C135.087 1.12 135.295 1.6 135.487 2.208C135.679 2.816 135.775 3.456 135.775 4.128C135.775 5.376 135.487 6.272 134.911 6.816C134.367 7.36 133.647 7.632 132.751 7.632H127.423V29.808C127.071 29.904 126.511 30 125.743 30.096C125.007 30.192 124.271 30.24 123.535 30.24C122.799 30.24 122.143 30.176 121.567 30.048C121.023 29.952 120.559 29.76 120.175 29.472C119.791 29.184 119.503 28.784 119.311 28.272C119.119 27.76 119.023 27.088 119.023 26.256V7.632H111.823ZM137.133 15.408C137.133 12.912 137.517 10.704 138.285 8.784C139.085 6.864 140.157 5.264 141.501 3.984C142.877 2.672 144.477 1.68 146.301 1.008C148.157 0.335999 150.157 0 152.301 0C154.445 0 156.429 0.335999 158.253 1.008C160.109 1.68 161.725 2.672 163.101 3.984C164.477 5.264 165.549 6.864 166.317 8.784C167.117 10.704 167.517 12.912 167.517 15.408C167.517 17.904 167.133 20.128 166.365 22.08C165.597 24 164.525 25.616 163.149 26.928C161.805 28.208 160.205 29.184 158.349 29.856C156.493 30.528 154.477 30.864 152.301 30.864C150.125 30.864 148.109 30.528 146.253 29.856C144.397 29.152 142.797 28.144 141.453 26.832C140.109 25.52 139.053 23.904 138.285 21.984C137.517 20.064 137.133 17.872 137.133 15.408ZM145.773 15.408C145.773 18.32 146.365 20.496 147.549 21.936C148.733 23.376 150.317 24.096 152.301 24.096C154.317 24.096 155.917 23.376 157.101 21.936C158.285 20.496 158.877 18.32 158.877 15.408C158.877 12.528 158.285 10.368 157.101 8.928C155.949 7.488 154.365 6.768 152.349 6.768C150.365 6.768 148.765 7.488 147.549 8.928C146.365 10.336 145.773 12.496 145.773 15.408ZM180.483 24C180.931 24.128 181.507 24.224 182.211 24.288C182.915 24.32 183.587 24.336 184.227 24.336C185.507 24.336 186.563 24.08 187.395 23.568C188.259 23.024 188.691 22.192 188.691 21.072C188.691 20.016 188.339 19.264 187.635 18.816C186.931 18.368 185.859 18.144 184.419 18.144H180.483V24ZM180.483 12.288H183.987C185.363 12.288 186.355 12.032 186.963 11.52C187.603 11.008 187.923 10.256 187.923 9.264C187.923 8.4 187.555 7.712 186.819 7.2C186.115 6.688 185.043 6.432 183.603 6.432C183.123 6.432 182.563 6.448 181.923 6.48C181.315 6.512 180.835 6.56 180.483 6.624V12.288ZM183.603 30.768C183.059 30.768 182.419 30.752 181.683 30.72C180.947 30.688 180.179 30.624 179.379 30.528C178.611 30.432 177.843 30.304 177.075 30.144C176.307 30.016 175.603 29.824 174.963 29.568C173.203 28.896 172.323 27.728 172.323 26.064V3.648C172.323 2.976 172.499 2.464 172.851 2.112C173.235 1.728 173.747 1.424 174.387 1.2C175.475 0.815998 176.835 0.543998 178.467 0.383998C180.099 0.191998 181.779 0.0959988 183.507 0.0959988C187.603 0.0959988 190.755 0.783998 192.963 2.16C195.171 3.536 196.275 5.664 196.275 8.544C196.275 9.984 195.859 11.232 195.027 12.288C194.195 13.312 193.075 14.064 191.667 14.544C193.267 14.992 194.595 15.808 195.651 16.992C196.739 18.176 197.283 19.664 197.283 21.456C197.283 24.624 196.099 26.976 193.731 28.512C191.395 30.016 188.019 30.768 183.603 30.768ZM210.394 20.592V29.808C210.042 29.904 209.482 30 208.714 30.096C207.978 30.192 207.242 30.24 206.506 30.24C205.77 30.24 205.114 30.176 204.538 30.048C203.994 29.952 203.53 29.76 203.146 29.472C202.794 29.184 202.522 28.784 202.33 28.272C202.138 27.76 202.042 27.088 202.042 26.256V3.648C202.042 2.976 202.218 2.464 202.57 2.112C202.954 1.728 203.466 1.424 204.106 1.2C205.194 0.815998 206.458 0.543998 207.898 0.383998C209.338 0.191998 210.874 0.0959988 212.506 0.0959988C216.922 0.0959988 220.25 1.024 222.49 2.88C224.73 4.736 225.85 7.248 225.85 10.416C225.85 12.4 225.338 14.096 224.314 15.504C223.29 16.912 222.074 18 220.666 18.768C221.818 20.336 222.954 21.808 224.074 23.184C225.194 24.56 226.074 25.808 226.714 26.928C226.394 28.048 225.802 28.912 224.938 29.52C224.106 30.096 223.162 30.384 222.106 30.384C221.402 30.384 220.794 30.304 220.282 30.144C219.77 29.984 219.322 29.76 218.938 29.472C218.554 29.184 218.202 28.832 217.882 28.416C217.562 28 217.258 27.552 216.97 27.072L212.938 20.592H210.394ZM213.418 14.208C214.634 14.208 215.594 13.904 216.298 13.296C217.002 12.656 217.354 11.728 217.354 10.512C217.354 9.296 216.954 8.384 216.154 7.776C215.386 7.136 214.154 6.816 212.458 6.816C211.978 6.816 211.594 6.832 211.306 6.864C211.018 6.896 210.698 6.944 210.346 7.008V14.208H213.418ZM237.859 1.776C238.403 1.456 239.219 1.152 240.307 0.863997C241.427 0.575997 242.547 0.431997 243.667 0.431997C245.267 0.431997 246.675 0.671998 247.891 1.152C249.139 1.6 249.939 2.32 250.291 3.312C250.867 4.976 251.491 6.912 252.163 9.12C252.835 11.328 253.507 13.616 254.179 15.984C254.851 18.32 255.507 20.64 256.147 22.944C256.787 25.216 257.347 27.232 257.827 28.992C257.443 29.44 256.867 29.792 256.099 30.048C255.331 30.336 254.419 30.48 253.363 30.48C252.595 30.48 251.939 30.416 251.395 30.288C250.883 30.16 250.451 29.968 250.099 29.712C249.779 29.456 249.507 29.12 249.283 28.704C249.091 28.288 248.915 27.808 248.755 27.264L247.891 23.952H239.203C238.947 24.912 238.691 25.904 238.435 26.928C238.179 27.952 237.923 28.944 237.667 29.904C237.219 30.064 236.739 30.192 236.227 30.288C235.747 30.416 235.155 30.48 234.451 30.48C232.819 30.48 231.603 30.208 230.803 29.664C230.035 29.088 229.651 28.304 229.651 27.312C229.651 26.864 229.715 26.416 229.843 25.968C229.971 25.52 230.115 24.992 230.275 24.384C230.499 23.52 230.803 22.448 231.187 21.168C231.603 19.888 232.051 18.512 232.531 17.04C233.011 15.536 233.523 14 234.067 12.432C234.611 10.864 235.123 9.392 235.603 8.016C236.083 6.608 236.515 5.36 236.899 4.272C237.315 3.184 237.635 2.352 237.859 1.776ZM243.619 7.968C243.171 9.312 242.659 10.816 242.083 12.48C241.539 14.112 241.043 15.776 240.595 17.472H246.547C246.099 15.744 245.635 14.064 245.155 12.432C244.707 10.768 244.291 9.28 243.907 7.968H243.619ZM274.263 8.016C274.615 7.856 275.159 7.68 275.895 7.488C276.663 7.264 277.431 7.152 278.199 7.152C279.543 7.152 280.663 7.36 281.559 7.776C282.455 8.16 282.999 8.736 283.191 9.504C283.543 10.816 283.863 12.048 284.151 13.2C284.471 14.32 284.775 15.408 285.063 16.464C285.351 17.488 285.623 18.512 285.879 19.536C286.167 20.56 286.439 21.632 286.695 22.752H286.935C287.223 20.8 287.479 18.944 287.703 17.184C287.927 15.392 288.135 13.648 288.327 11.952C288.519 10.224 288.711 8.528 288.903 6.864C289.095 5.168 289.287 3.456 289.479 1.728C290.663 1.056 291.927 0.719999 293.271 0.719999C294.455 0.719999 295.479 0.975999 296.343 1.488C297.207 2 297.639 2.864 297.639 4.08C297.639 4.784 297.559 5.792 297.399 7.104C297.271 8.384 297.079 9.824 296.823 11.424C296.599 13.024 296.327 14.704 296.007 16.464C295.687 18.224 295.351 19.904 294.999 21.504C294.647 23.104 294.279 24.56 293.895 25.872C293.543 27.152 293.207 28.144 292.887 28.848C292.407 29.296 291.623 29.664 290.535 29.952C289.447 30.24 288.327 30.384 287.175 30.384C285.671 30.384 284.391 30.192 283.335 29.808C282.311 29.392 281.687 28.816 281.463 28.08C281.047 26.8 280.599 25.28 280.119 23.52C279.639 21.76 279.127 19.824 278.583 17.712C278.135 19.792 277.671 21.824 277.191 23.808C276.711 25.792 276.279 27.472 275.895 28.848C275.415 29.296 274.695 29.664 273.735 29.952C272.775 30.24 271.719 30.384 270.567 30.384C269.127 30.384 267.815 30.192 266.631 29.808C265.479 29.392 264.727 28.816 264.375 28.08C264.087 27.504 263.767 26.656 263.415 25.536C263.095 24.384 262.759 23.088 262.407 21.648C262.055 20.176 261.687 18.592 261.303 16.896C260.951 15.2 260.615 13.504 260.295 11.808C260.007 10.112 259.735 8.464 259.479 6.864C259.223 5.232 259.031 3.744 258.903 2.4C259.351 1.984 259.975 1.6 260.775 1.248C261.575 0.895999 262.439 0.719999 263.367 0.719999C264.583 0.719999 265.575 0.991999 266.343 1.536C267.143 2.048 267.639 2.928 267.831 4.176C268.343 7.44 268.759 10.16 269.079 12.336C269.431 14.512 269.703 16.304 269.895 17.712C270.119 19.088 270.279 20.16 270.375 20.928C270.471 21.696 270.567 22.304 270.663 22.752H270.903C271.191 21.472 271.463 20.288 271.719 19.2C271.975 18.112 272.231 17.024 272.487 15.936C272.775 14.816 273.063 13.632 273.351 12.384C273.639 11.104 273.943 9.648 274.263 8.016ZM306.725 30.144C305.349 30.144 304.261 29.744 303.461 28.944C302.661 28.144 302.261 27.056 302.261 25.68V0.863997C302.613 0.799998 303.173 0.719998 303.941 0.623998C304.709 0.495997 305.445 0.431997 306.149 0.431997C306.885 0.431997 307.525 0.495997 308.069 0.623998C308.645 0.719998 309.125 0.911999 309.509 1.2C309.893 1.488 310.181 1.888 310.373 2.4C310.565 2.912 310.661 3.584 310.661 4.416V23.376H321.653C321.877 23.728 322.085 24.208 322.277 24.816C322.469 25.392 322.565 26 322.565 26.64C322.565 27.92 322.293 28.832 321.749 29.376C321.205 29.888 320.485 30.144 319.589 30.144H306.725Z" fill="black"/>
</svg>
