<svg width="500" height="108" viewBox="0 0 500 108" fill="none" xmlns="http://www.w3.org/2000/svg">
  <path fill-rule="evenodd" clip-rule="evenodd" d="M111.062 42.7914V52.7365H126.499V61.8897H111.062V71.8314H129.097V80.9846H100.67V33.6382H129.094V42.7914H111.062ZM166.106 42.8693H154.219V80.9846H143.898V42.8726H131.933V33.6382H166.11L166.106 42.8693ZM210.285 33.6382V80.9846H199.972V61.8897H180.755V80.9846H170.36V33.6382H180.755V52.6553H199.972V33.6382H210.285ZM279.194 33.6382L264.464 80.9846H259.188L246.824 39.0049L234.696 80.9846H229.343L214.539 33.6382H219.892L231.942 72.4642L243.281 33.6382H250.367L261.868 72.5454L273.996 33.6416L279.194 33.6382Z" fill="#1E284F"/>
  <path d="M320.219 76.8841V80.9853C319.504 81.4061 318.687 81.6248 317.857 81.6181C316.213 81.6577 314.603 81.1414 313.288 80.1528C311.974 79.1642 311.031 77.761 310.612 76.1701C308.161 78.8584 304.881 80.6488 301.294 81.2559C297.707 81.8631 294.02 81.252 290.82 79.5201C287.619 77.7838 285.089 75.0291 283.63 71.6923C282.171 68.3556 281.868 64.6275 282.767 61.0986C283.662 57.571 285.71 54.4438 288.586 52.2139C291.462 49.9841 295.001 48.7795 298.64 48.7916C300.774 48.7861 302.888 49.2013 304.861 50.0137C306.834 50.826 308.627 52.0194 310.139 53.5256V49.421H315.021V72.7795C315.021 75.6998 316.517 76.8841 318.25 76.8841H320.219ZM310.135 65.2031C310.136 62.9267 309.463 60.701 308.2 58.807C306.937 56.913 305.141 55.4355 303.039 54.561C300.939 53.6899 298.627 53.4622 296.397 53.9068C294.166 54.3514 292.118 55.4482 290.512 57.0583C288.904 58.6711 287.809 60.7238 287.365 62.9578C286.922 65.1918 287.149 67.5072 288.019 69.6123C288.887 71.7164 290.36 73.5155 292.251 74.7817C294.143 76.048 296.368 76.7243 298.644 76.7251C301.695 76.7179 304.619 75.5008 306.774 73.3408C308.928 71.1808 310.139 68.2543 310.139 65.2031H310.135Z" fill="#1E284F"/>
  <path fill-rule="evenodd" clip-rule="evenodd" d="M332.976 54.1541V72.0714C332.957 72.7012 333.065 73.3285 333.295 73.9153C333.524 74.5022 333.87 75.0366 334.311 75.4864C334.752 75.9362 335.28 76.2921 335.862 76.5327C336.445 76.7734 337.07 76.8937 337.7 76.8866H341.321V80.5953C340.036 81.2773 338.603 81.6296 337.148 81.6206C334.769 81.6261 332.484 80.6929 330.788 79.0235C329.093 77.3541 328.124 75.0833 328.093 72.7042V54.1608H322.814V49.4235H328.093V35.6953H332.976V49.4235H341.402V54.1608H332.976V54.1541Z" fill="#1E284F"/>
  <path d="M380.225 65.9136H352.426C352.588 68.4904 353.609 70.9386 355.327 72.8659C357.045 74.7931 359.36 76.0879 361.902 76.5427C364.443 76.9975 367.064 76.586 369.344 75.3741C371.624 74.1623 373.431 72.2202 374.475 69.8591H379.673C378.536 73.8611 375.928 77.2854 372.372 79.4455C368.817 81.6055 364.576 82.3416 360.5 81.5062C356.424 80.6642 352.815 78.3144 350.396 74.9266C347.977 71.5389 346.925 67.3629 347.452 63.2336C347.972 59.1054 350.032 55.3259 353.219 52.6517C356.406 49.9775 360.486 48.606 364.642 48.8117C368.798 49.0253 372.72 50.7999 375.623 53.7806C378.527 56.7614 380.198 60.7284 380.302 64.8883L380.225 65.9136ZM353.056 61.4943H374.712C373.972 59.2182 372.529 57.2358 370.591 55.8323C368.652 54.4288 366.318 53.6768 363.925 53.6844C361.524 53.6864 359.184 54.441 357.235 55.8419C355.285 57.2428 353.824 59.2196 353.056 61.4943Z" fill="#1E284F"/>
  <path fill-rule="evenodd" clip-rule="evenodd" d="M407.079 49.0278V53.9987C406.287 53.7624 405.461 53.6561 404.635 53.684C403.278 53.6548 401.928 53.8959 400.665 54.3932C399.401 54.8905 398.249 55.634 397.276 56.5805C396.301 57.5284 395.525 58.66 394.99 59.9099C394.456 61.1598 394.175 62.5032 394.163 63.8625V80.9846H389.28V49.4203H394.163V53.9208C395.373 52.2926 396.955 50.9773 398.776 50.085C400.598 49.1926 402.607 48.7489 404.635 48.7909C405.454 48.7774 406.273 48.8586 407.079 49.0278ZM413.22 33.6382H418.103V80.9846H413.22V33.6382Z" fill="#1E284F"/>
  <path d="M427.395 65.2031C427.393 63.0501 427.815 60.9177 428.636 58.9278C429.458 56.9379 430.664 55.1293 432.185 53.6053C433.706 52.0814 435.512 50.8719 437.5 50.0459C439.488 49.22 441.62 48.7937 443.773 48.7915C445.926 48.7937 448.057 49.22 450.045 50.0459C452.034 50.8719 453.84 52.0814 455.36 53.6053C456.881 55.1293 458.087 56.9379 458.909 58.9278C459.731 60.9177 460.153 63.0501 460.15 65.2031C460.153 67.356 459.731 69.4884 458.909 71.4783C458.087 73.4682 456.881 75.2768 455.36 76.8008C453.84 78.3247 452.034 79.5342 450.045 80.3602C448.057 81.1861 445.926 81.6124 443.773 81.6146C441.62 81.6162 439.489 81.1928 437.501 80.3688C435.513 79.5449 433.707 78.3365 432.186 76.813C429.114 73.7318 427.391 69.5573 427.395 65.2064V65.2031ZM455.271 65.2031C455.271 62.9262 454.597 60.7003 453.334 58.8062C452.07 56.9121 450.274 55.4349 448.172 54.5609C446.071 53.6898 443.759 53.4621 441.529 53.9067C439.299 54.3513 437.251 55.4481 435.645 57.0582C434.036 58.671 432.941 60.7237 432.498 62.9577C432.054 65.1917 432.281 67.5071 433.151 69.6122C434.019 71.7163 435.492 73.5154 437.384 74.7817C439.275 76.0479 441.5 76.7242 443.776 76.725C446.827 76.7178 449.751 75.5007 451.906 73.3407C454.061 71.1807 455.271 68.2542 455.271 65.2031ZM467.239 65.2031C467.237 63.0501 467.659 60.9177 468.481 58.9278C469.303 56.9379 470.509 55.1293 472.029 53.6053C473.55 52.0814 475.356 50.8719 477.344 50.0459C479.333 49.22 481.464 48.7937 483.617 48.7915C485.77 48.7933 487.902 49.2192 489.891 50.045C491.879 50.8707 493.686 52.0801 495.207 53.6041C496.728 55.1281 497.934 56.9369 498.756 58.927C499.578 60.9172 500 63.0498 499.998 65.2031C500 67.356 499.579 69.4884 498.757 71.4783C497.935 73.4682 496.729 75.2768 495.208 76.8008C493.688 78.3247 491.881 79.5342 489.893 80.3602C487.905 81.1861 485.774 81.6124 483.621 81.6146C481.468 81.6162 479.337 81.1928 477.349 80.3688C475.36 79.5449 473.554 78.3365 472.034 76.813C468.961 73.7324 467.237 69.5578 467.239 65.2064V65.2031ZM495.115 65.2031C495.116 62.9266 494.443 60.7009 493.18 58.8069C491.917 56.9129 490.121 55.4354 488.02 54.5609C485.918 53.6891 483.606 53.461 481.375 53.9056C479.144 54.3502 477.095 55.4475 475.489 57.0582C473.881 58.6714 472.787 60.7242 472.344 62.9582C471.901 65.1922 472.129 67.5074 472.999 69.6122C473.867 71.7158 475.339 73.5145 477.23 74.7807C479.121 76.0469 481.345 76.7235 483.621 76.725C486.672 76.7178 489.595 75.5007 491.75 73.3407C493.905 71.1807 495.115 68.2542 495.115 65.2031Z" fill="#1E284F"/>
  <path d="M77.0439 53.5288C76.9525 52.6025 76.6181 51.7167 76.0746 50.9611C75.531 50.2055 74.7975 49.6069 73.9483 49.2257C73.0991 48.8446 72.1643 48.6944 71.2385 48.7905C70.3127 48.8865 69.4286 49.2254 68.6757 49.7727C67.9216 50.3197 67.3245 51.0552 66.9444 51.9057C66.5643 52.7562 66.4145 53.6917 66.5101 54.6184C66.5239 54.7783 66.5511 54.9367 66.5913 55.0921L39.8862 70.3769V59.9005C42.688 59.9784 45.483 60.3066 48.2273 60.8785C48.4474 60.9248 48.6755 60.9156 48.8911 60.8516C49.1067 60.7876 49.303 60.6709 49.4622 60.5121C49.6214 60.3532 49.7385 60.1572 49.8029 59.9417C49.8674 59.7262 49.8771 59.4981 49.8312 59.2779L49.3135 56.7502L57.8272 49.0892C57.9989 48.9345 58.1284 48.7385 58.2034 48.5199C58.2784 48.3012 58.2964 48.067 58.2558 47.8395C58.2152 47.6119 58.1172 47.3984 57.9712 47.2192C57.8251 47.04 57.6358 46.901 57.4211 46.8153L56.1793 46.328L57.7291 40.4063C57.7871 40.1766 57.7842 39.9358 57.7205 39.7076C57.6569 39.4794 57.5347 39.2718 57.3662 39.1053C57.1977 38.9388 56.9886 38.8192 56.7596 38.7584C56.5307 38.6976 56.2898 38.6976 56.0608 38.7584L51.3742 40.0443L51.1035 38.3354C51.0616 38.0709 50.9421 37.8247 50.7602 37.6282C50.5783 37.4316 50.3421 37.2934 50.0816 37.2311C49.8211 37.1687 49.548 37.1851 49.2968 37.2781C49.0456 37.3711 48.8277 37.5365 48.6706 37.7534L45.642 41.9493L47.1479 32.7792C47.189 32.5265 47.1578 32.2673 47.0578 32.0316C46.9579 31.7959 46.7934 31.5933 46.5832 31.4471C46.373 31.301 46.1257 31.2173 45.87 31.2057C45.6142 31.1941 45.3604 31.2551 45.1379 31.3817L42.9925 32.6201L39.8591 26.6139C39.7441 26.3949 39.5714 26.2117 39.3596 26.084C39.1478 25.9564 38.9051 25.8892 38.6578 25.8897H38.6477C38.3989 25.8917 38.1554 25.9623 37.9441 26.0936C37.7328 26.2249 37.5618 26.412 37.4498 26.6342L34.3299 32.813L31.9714 31.3241C31.7429 31.1795 31.4762 31.1066 31.2059 31.1149C30.9356 31.1232 30.6739 31.2123 30.4547 31.3707C30.2355 31.5291 30.0687 31.7496 29.976 32.0036C29.8832 32.2577 29.8687 32.5337 29.9343 32.7961L32.0898 41.6143L28.7737 37.4489C28.6122 37.246 28.3959 37.0939 28.1504 37.0104C27.905 36.927 27.6408 36.9158 27.3891 36.9781C27.1375 37.0405 26.9091 37.1738 26.731 37.3623C26.553 37.5507 26.4328 37.7863 26.3847 38.041L26.0463 39.8175L21.0789 38.8193C20.8469 38.7721 20.6066 38.7866 20.382 38.8613C20.1574 38.936 19.9563 39.0683 19.7988 39.245C19.6413 39.4217 19.5329 39.6366 19.4843 39.8683C19.4358 40.1 19.4489 40.3403 19.5223 40.5654L21.2684 46.0235L19.5494 46.8593C19.348 46.9564 19.1738 47.1019 19.0424 47.2828C18.9109 47.4637 18.8264 47.6743 18.7962 47.8958C18.766 48.1173 18.7912 48.3429 18.8695 48.5523C18.9478 48.7618 19.0767 48.9485 19.2448 49.096L27.8804 56.7299L27.2442 59.2136C27.1881 59.4366 27.1894 59.6702 27.2481 59.8926C27.3068 60.115 27.4209 60.3188 27.5798 60.4851C27.7386 60.6514 27.9371 60.7747 28.1565 60.8435C28.3759 60.9123 28.6092 60.9243 28.8346 60.8785C31.5818 60.3077 34.3743 59.9816 37.1791 59.9039V70.3769L14.5718 57.4337C14.3651 57.3144 14.1306 57.2518 13.892 57.2524C13.6533 57.2529 13.4191 57.3165 13.2129 57.4367C13.0068 57.557 12.8362 57.7296 12.7182 57.937C12.6003 58.1445 12.5393 58.3794 12.5415 58.6181C12.5431 58.8563 12.6074 59.09 12.728 59.2955C12.8486 59.5011 13.0212 59.6712 13.2284 59.7889L37.8626 73.896C37.9202 73.9163 37.9811 73.9299 38.042 73.9434C38.1961 74.0165 38.3625 74.0601 38.5326 74.072H38.536C38.7688 74.0732 38.9977 74.0124 39.1992 73.896L39.2094 73.8926L39.2128 73.8893L67.7824 57.5352C68.7739 58.7027 70.2289 59.376 71.7618 59.3794C71.9513 59.3794 72.1272 59.3659 72.3167 59.3524C73.621 59.2145 74.8282 58.5991 75.706 57.6245C76.5837 56.6499 77.0699 55.3851 77.071 54.0736C77.071 53.8976 77.0575 53.7217 77.0439 53.5322V53.5288ZM38.5326 50.1213C38.3546 50.1213 38.1783 50.1564 38.0139 50.2246C37.8494 50.2929 37.7001 50.3929 37.5743 50.5189C37.4486 50.645 37.349 50.7946 37.2812 50.9592C37.2133 51.1238 37.1787 51.3002 37.1791 51.4782V57.2104C34.9063 57.2601 32.6395 57.4647 30.3945 57.8229L30.7092 56.5979C30.7716 56.3559 30.7657 56.1013 30.6923 55.8624C30.6188 55.6235 30.4806 55.4096 30.293 55.2444L22.561 48.4091L22.8046 48.294C23.2921 48.054 23.6775 47.6473 23.891 47.1476C24.1046 46.6479 24.1321 46.0883 23.9687 45.57L22.8046 41.9358L25.9685 42.5686C26.4539 42.6653 26.9576 42.5998 27.4021 42.3821C27.8467 42.1644 28.2073 41.8067 28.4285 41.3639L30.5603 44.0405C30.9138 44.4919 31.4117 44.8079 31.9706 44.9355C32.5294 45.0631 33.1152 44.9946 33.6295 44.7414C34.1438 44.4882 34.5553 44.0658 34.795 43.5451C35.0347 43.0243 35.0879 42.437 34.9458 41.8817L33.3588 35.405C33.6244 35.5634 33.9199 35.6654 34.2267 35.7045C34.5335 35.7436 34.8451 35.7191 35.1419 35.6324C35.4388 35.5457 35.7147 35.3987 35.9522 35.2007C36.1898 35.0026 36.384 34.7577 36.5226 34.4812L38.6781 30.2109L40.8099 34.2951C40.9506 34.5645 41.1441 34.8027 41.3791 34.9955C41.614 35.1882 41.8854 35.3316 42.1771 35.4169C42.4687 35.5022 42.7746 35.5278 43.0764 35.492C43.3781 35.4562 43.6696 35.3599 43.9332 35.2088L44.011 35.1614L42.8267 42.3689C42.7296 42.9267 42.8248 43.5009 43.0969 43.9974C43.3689 44.4939 43.8016 44.8832 44.324 45.1015C44.8464 45.3198 45.4274 45.3542 45.9718 45.1989C46.5163 45.0436 46.9918 44.708 47.3204 44.247L49.0868 41.8038C49.3425 42.2194 49.7262 42.5406 50.1802 42.7194C50.6342 42.8982 51.1339 42.9248 51.6043 42.7953L54.5144 41.9967L53.4587 46.0302C53.3382 46.4921 53.3666 46.9801 53.5398 47.4249C53.713 47.8696 54.0221 48.2484 54.4231 48.5072L46.9279 55.2512C46.7516 55.4101 46.6201 55.6124 46.5465 55.8381C46.4728 56.0637 46.4597 56.3047 46.5083 56.537L46.7756 57.8432C44.4966 57.4721 42.1946 57.2595 39.8862 57.207V51.4782C39.8853 51.1195 39.7424 50.7757 39.4887 50.5221C39.2351 50.2684 38.8913 50.1256 38.5326 50.1247V50.1213ZM72.0325 56.6521C71.7111 56.694 71.3845 56.6701 71.0727 56.5817C70.7608 56.4932 70.4703 56.3422 70.2188 56.1377C69.9306 55.9293 69.6907 55.6613 69.5155 55.3518C69.3403 55.0423 69.2339 54.6986 69.2036 54.3443C69.179 54.087 69.1881 53.8277 69.2307 53.5728C69.3491 52.9845 69.667 52.4551 70.1307 52.0741C70.5943 51.6931 71.1752 51.4838 71.7753 51.4816C72.456 51.4559 73.1193 51.6996 73.6215 52.1598C74.1237 52.6199 74.4243 53.2595 74.4582 53.9398C74.492 54.6201 74.2563 55.2863 73.8023 55.794C73.3482 56.3017 72.7123 56.61 72.0325 56.6521ZM67.6301 61.6297L38.5292 78.2916L10.3826 62.1745C9.89921 61.8979 9.33538 61.796 8.78576 61.886C8.23615 61.9759 7.73421 62.2522 7.36423 62.6685C6.99343 63.0855 6.77701 63.6171 6.75114 64.1745C6.72527 64.7319 6.89152 65.2813 7.22211 65.7309L37.4329 106.817C37.4901 106.897 37.5559 106.971 37.6292 107.037C37.8756 107.258 38.1947 107.381 38.5259 107.382H38.536C38.7233 107.38 38.9083 107.34 39.0794 107.264C39.2505 107.188 39.4041 107.077 39.5309 106.939H39.5342C39.5692 106.9 39.602 106.86 39.6324 106.817L70.4928 64.8511C70.7922 64.4435 70.9424 63.9454 70.9184 63.4403C70.8944 62.9352 70.6975 62.4537 70.3609 62.0763C70.026 61.7 69.5719 61.4502 69.0747 61.3688C68.5775 61.2875 68.0675 61.3796 67.6301 61.6297ZM37.1757 101.897L10.1796 65.1827L37.1791 80.64V101.897H37.1757ZM39.8828 101.897V80.64L66.8857 65.1827L39.8828 101.897ZM10.5924 54.0736C10.5924 52.6659 10.0307 51.3124 9.03584 50.3175L37.1825 5.99959V20.8986C37.1825 21.2576 37.3251 21.6018 37.5789 21.8557C37.8328 22.1095 38.177 22.2521 38.536 22.2521C38.895 22.2521 39.2393 22.1095 39.4931 21.8557C39.7469 21.6018 39.8895 21.2576 39.8895 20.8986V5.99959L66.1819 47.4007C66.2776 47.5507 66.402 47.6803 66.5479 47.7822C66.6937 47.8841 66.8582 47.9563 67.032 47.9946C67.2057 48.033 67.3854 48.0367 67.5606 48.0056C67.7358 47.9746 67.9031 47.9093 68.0531 47.8135C68.2031 47.7177 68.3327 47.5934 68.4346 47.4475C68.5366 47.3017 68.6087 47.1371 68.6471 46.9634C68.6854 46.7896 68.6891 46.61 68.6581 46.4348C68.627 46.2596 68.5617 46.0922 68.4659 45.9423L39.673 0.612546L39.6561 0.588859C39.6324 0.555021 39.6019 0.531334 39.5748 0.500879C39.4975 0.400548 39.4064 0.311684 39.3041 0.236941C39.2872 0.22679 39.2771 0.206487 39.2602 0.196335C39.2297 0.176032 39.1992 0.176032 39.1688 0.162497C38.9169 0.0248463 38.6272 -0.0273973 38.3431 0.0136086C38.2958 0.0203763 38.2518 0.0203763 38.2078 0.0305278C38.1875 0.0339116 38.1706 0.0305278 38.1536 0.0372954C38.021 0.0774222 37.8955 0.137926 37.7814 0.216638L37.7611 0.223406C37.6276 0.320236 37.5129 0.440648 37.4227 0.578707L37.3889 0.612546L6.67731 48.9742C6.22638 48.8422 5.75973 48.7716 5.28994 48.7644C4.24234 48.7695 3.2196 49.0841 2.35017 49.6685C1.48075 50.253 0.803399 51.0813 0.403191 52.0495C0.00298252 53.0177 -0.102241 54.0825 0.100735 55.1103C0.30371 56.138 0.805835 57.0829 1.54405 57.8262C2.28382 58.5725 3.22912 59.0815 4.25936 59.2883C5.28961 59.4951 6.35811 59.3903 7.32855 58.9873C8.299 58.5843 9.12741 57.9014 9.70812 57.0256C10.2888 56.1499 10.5955 55.121 10.589 54.0702L10.5924 54.0736ZM5.29333 56.669C4.60588 56.6681 3.94695 56.3941 3.46149 55.9074C2.97603 55.4207 2.7038 54.761 2.7047 54.0736C2.7056 53.3861 2.97955 52.7272 3.46628 52.2417C3.95301 51.7563 4.61265 51.4841 5.30009 51.485C5.98754 51.4859 6.64647 51.7598 7.13193 52.2465C7.61739 52.7333 7.88962 53.3929 7.88872 54.0804C7.88782 54.7678 7.61388 55.4267 7.12715 55.9122C6.64042 56.3977 5.98077 56.6699 5.29333 56.669Z" fill="url(#paint0_linear)"/>
  <defs>
    <linearGradient id="paint0_linear" x1="44.4253" y1="2.51382" x2="22.2343" y2="102.578" gradientUnits="userSpaceOnUse">
      <stop stop-color="#5FC5A6"/>
      <stop offset="0.34365" stop-color="#5666F6"/>
      <stop offset="0.75562" stop-color="#FF6895"/>
      <stop offset="1" stop-color="#FFC750"/>
    </linearGradient>
  </defs>
</svg>
