<svg xmlns="http://www.w3.org/2000/svg" width="100" height="100" viewBox="0 0 512 512">
  <path d="M512 52.966V476.69c0 19.501-15.809 35.31-35.31 35.31H35.31C15.809 512 0 496.191 0 476.69V52.966h512z" fill="#d1d4d1"/>
  <path d="M512 35.31v35.31H0V35.31C0 15.809 15.809 0 35.31 0h441.38C496.191 0 512 15.809 512 35.31z" fill="#F05F90"/><path d="M52.966 26.483h-8.828a8.828 8.828 0 000 17.656h8.828a8.828 8.828 0 000-17.656z" fill="red"/><path d="M91.63 27.189a8.082 8.082 0 00-6.709 0 10.198 10.198 0 00-2.913 1.854 8.95 8.95 0 000 12.535 10.212 10.212 0 002.913 1.854 8.325 8.325 0 006.709 0 10.198 10.198 0 002.913-1.854 8.95 8.95 0 000-12.535 10.185 10.185 0 00-2.913-1.854z" fill="#f0c419"/><path d="M117.319 29.043a10.212 10.212 0 00-1.854 2.913 8.317 8.317 0 000 6.709 10.198 10.198 0 001.854 2.913 8.95 8.95 0 0012.535 0 10.212 10.212 0 001.854-2.913 7.385 7.385 0 00.706-3.354 8.827 8.827 0 00-15.095-6.268z" fill="#65ddb9"/><path d="M467.862 26.483H167.724a8.828 8.828 0 000 17.656h300.138a8.828 8.828 0 000-17.656z" fill="#804169"/><g fill="#e64c3c"><path d="M167.724 300.138H60.628l62.958-94.455v67.972a8.828 8.828 0 0017.656 0v-97.103c0-.291-.141-.53-.168-.821a8.24 8.24 0 00-.353-1.766 8.411 8.411 0 00-.627-1.518 8.55 8.55 0 00-.883-1.359 8.33 8.33 0 00-1.28-1.28c-.221-.185-.344-.433-.583-.591-.238-.159-.494-.168-.733-.3a8.368 8.368 0 00-1.668-.68 8.757 8.757 0 00-1.704-.344 7.769 7.769 0 00-.83-.168c-.291 0-.547.141-.83.168a9.051 9.051 0 00-3.276.971 8.488 8.488 0 00-1.386.936c-.46.38-.882.803-1.262 1.262-.177.221-.433.353-.591.591L36.793 304.066a8.827 8.827 0 007.345 13.727h123.586a8.828 8.828 0 000-17.655zM132.414 335.448a8.828 8.828 0 00-8.828 8.828v26.483a8.828 8.828 0 0017.656 0v-26.483a8.83 8.83 0 00-8.828-8.828zM459.034 300.138H351.938l62.958-94.455v67.972a8.828 8.828 0 0017.656 0v-97.103c0-.291-.141-.53-.168-.821a8.24 8.24 0 00-.353-1.766 8.411 8.411 0 00-.627-1.518 8.482 8.482 0 00-.883-1.359 8.33 8.33 0 00-1.28-1.28c-.221-.185-.344-.433-.583-.591-.238-.159-.494-.168-.733-.3a8.368 8.368 0 00-1.668-.68 8.757 8.757 0 00-1.704-.344 7.769 7.769 0 00-.83-.168c-.291 0-.547.141-.83.168a8.991 8.991 0 00-1.765.353 8.24 8.24 0 00-2.895 1.554 8.52 8.52 0 00-1.271 1.262c-.177.221-.433.353-.591.591l-88.276 132.414a8.827 8.827 0 007.354 13.727h123.586a8.828 8.828 0 10-.001-17.656zM423.724 335.448a8.828 8.828 0 00-8.828 8.828v26.483a8.828 8.828 0 0017.656 0v-26.483a8.829 8.829 0 00-8.828-8.828zM273.655 167.724h-44.138c-19.501 0-35.31 15.809-35.31 35.31v141.241c0 19.501 15.809 35.31 35.31 35.31h44.138c19.501 0 35.31-15.809 35.31-35.31V203.034c.001-19.501-15.808-35.31-35.31-35.31zm17.655 176.552c0 9.751-7.904 17.655-17.655 17.655h-44.138c-9.751 0-17.655-7.905-17.655-17.655V203.034c0-9.751 7.904-17.655 17.655-17.655h44.138c9.751 0 17.655 7.904 17.655 17.655v141.242z"/></g><g fill="#c03a2b"><path d="M344.276 423.724H167.724a8.828 8.828 0 000 17.656h176.552a8.828 8.828 0 000-17.656zM308.966 459.034H203.034a8.828 8.828 0 000 17.656h105.931a8.828 8.828 0 00.001-17.656z"/></g>
</svg>
